<svg xmlns="http://www.w3.org/2000/svg" viewBox="0 0 128 128" width="96" height="96" shape-rendering="crispEdges">
  <rect x="32" y="8"   width="16" height="8"  fill="#8B5CF6"/>
  <rect x="80" y="8"   width="16" height="8"  fill="#8B5CF6"/>
  <rect x="24" y="16"  width="80" height="8"  fill="#8B5CF6"/>
  <rect x="16" y="24"  width="96" height="8"  fill="#8B5CF6"/>
  <rect x="8"  y="32"  width="112" height="8" fill="#8B5CF6"/>
  <rect x="8"   y="40" width="16" height="8"  fill="#8B5CF6"/>
  <rect x="24"  y="40" width="16" height="8"  fill="#f2f2e8"/>
  <rect x="40"  y="40" width="48" height="8"  fill="#8B5CF6"/>
  <rect x="88"  y="40" width="16" height="8"  fill="#f2f2e8"/>
  <rect x="104" y="40" width="16" height="8"  fill="#8B5CF6"/>
  <rect x="8"   y="48" width="16" height="8"  fill="#8B5CF6"/>
  <rect x="24"  y="48" width="16" height="8"  fill="#f2f2e8"/>
  <rect x="40"  y="48" width="48" height="8"  fill="#8B5CF6"/>
  <rect x="88"  y="48" width="16" height="8"  fill="#f2f2e8"/>
  <rect x="104" y="48" width="16" height="8"  fill="#8B5CF6"/>
  <rect x="8"   y="56" width="112" height="32" fill="#8B5CF6"/>
  <rect x="16"  y="88" width="96" height="8"  fill="#8B5CF6"/>
  <rect x="24"  y="96" width="80" height="8"  fill="#8B5CF6"/>
  <rect x="32"  y="104" width="16" height="8" fill="#8B5CF6"/>
  <rect x="80"  y="104" width="16" height="8" fill="#8B5CF6"/>
</svg>
